# xmcd
#
# Track frame offsets:
#	150
#	18569
#	33653
#	48300
#	58227
#	69753
#	77538
#	96030
#	108369
#	128280
#	139912
#	150212
#	167490
#	191556
#	207697
#	227504
#
# Disc length: 3284 seconds
#
# Revision: 0
# Processed by: cddbd v1.5.1PL2 Copyright (c) Steve Scherf et al.
# Submitted via: audiograbber 1.83.01
#
DISCID=c80cd210
DTITLE=John Hartford - Live at College Station Pennsylvania
DYEAR=1995
DGENRE=country
TTITLE0=Gum Tree Canoe
TTITLE1=Gentle on My Mind
TTITLE2=In Tall Buildings
TTITLE3=Wrong Road Again
TTITLE4=Bring Your Clothes Back Home
TTITLE5=Run Little Rabbit
TTITLE6=Lorena
TTITLE7=The Girl I Left Behind Me
TTITLE8=Learning to Smile All Over Again
TTITLE9=Cacklin' Hen
TTITLE10=I Would Not Be Here
TTITLE11=Boogie
TTITLE12=Old River Men
TTITLE13=Piece of My Heart
TTITLE14=Natchez Whistle
TTITLE15=Skippin' in the Mississippi Dew
EXTD=
EXTT0=
EXTT1=
EXTT2=
EXTT3=
EXTT4=
EXTT5=
EXTT6=
EXTT7=
EXTT8=
EXTT9=
EXTT10=
EXTT11=
EXTT12=
EXTT13=
EXTT14=
EXTT15=
PLAYORDER=
